<svg xmlns="http://www.w3.org/2000/svg" viewBox="0 0 114.56 100.67"><defs><linearGradient id="a091da32c-c2e4-4aac-884b-233004c89640" x1="28.78" y1="16.12" x2="94.66" y2="82" gradientUnits="userSpaceOnUse"><stop offset="0" stop-color="#ffb2c2"/><stop offset="1" stop-color="#f85e8a"/></linearGradient></defs><g style="isolation:isolate"><g><path d="M91 23.1c-7.63-2.2-52.55-9.82-54.42 21.72S61.2 79.18 71.15 76.24C83.66 72.54 91.33 64.54 88 57c-2.42-5.45-8.57-5.87-13.7.32-3.9 4.69-14.1 5.06-17.6-4.75S61.06 32 76.22 32.44c24 .69 34.71 14 27.26 34.58C92.89 96.29 51.9 112.75 26.6 81s-9.47-70.42 27-75.37C95 0 108.05 28 91 23.1z" fill="url(#a091da32c-c2e4-4aac-884b-233004c89640)"/><path d="M101.83 26.24c-1.36 1.85 9.23 12.56 12.29 8.44s-10.92-10.3-12.29-8.44zM11.74 48.3c1.31-1.9-4.07-7.94-7-3.72s5.69 5.62 7 3.72z" fill="#f757af"/><path d="M105.72 22.5c-1.92 1.74 4.88 4 5.74 1.46s-4.46-2.57-5.74-1.46zM40.28 96.71c-2.6 3.57 2.89 6 3.39 1.59.33-2.51-1.96-3.57-3.39-1.59z" fill="#ab8eeb" style="mix-blend-mode:multiply"/><path d="M10.9 52.64c-2-1.52-6.63-2.8-9.53-1.08C-1.07 53-1 60.74 8.18 56.68c5.28-2.32 3.67-3.31 2.72-4.04zM91.48 11.94c2.19-1.72 3.52-3.59 2.71-5.54-3.34-8-30.46-9.38-48.9 1a51.75 51.75 0 0 1 8.34-1.81C71.7 3.13 84.37 7.1 91.48 11.94z" fill="#ffbd88" style="mix-blend-mode:multiply"/><path d="M32.57 18.92c-15.49 24.24-6.07 53.73 24.37 57.4-10.54-2.43-21.59-10.75-20.36-31.5 1.42-24 27.89-25.33 43.76-23.61-7.82-.88 5-4.48 11.14-9.27C84.37 7.1 71.7 3.13 53.63 5.58a51.75 51.75 0 0 0-8.34 1.81 35.27 35.27 0 0 0-12.72 11.53z" fill="#ffbd88" style="mix-blend-mode:multiply"/><path d="M26.6 81c-6.89-8.66-10.74-17.82-12-26.66-6.79 11.42-9 23.45-4.19 31.66S28 96.17 42 93.89A47.35 47.35 0 0 1 26.6 81z" fill="#f757af" style="mix-blend-mode:multiply"/><path d="M87.94 64.38c-2.15 4.94-8.37 9.37-16.79 11.86-10 2.94-36.44.11-34.57-31.42.62-10.46 6-16.61 13.14-20.09C34.66 30.33 22 42 14.65 54.29c1.21 8.84 5.06 18 12 26.66A47.35 47.35 0 0 0 42 93.89c19.6-3.18 41.35-14.74 45.94-29.51z" fill="#f757af" style="mix-blend-mode:multiply"/><path d="M104.09 46.3c2.44 5.54 2.34 12.56-.61 20.72a48.42 48.42 0 0 1-21.86 25.4 50.51 50.51 0 0 0 18.68-2.8c17.55-6.18 16.81-28.55 3.79-43.32z" fill="#ab8eeb" style="mix-blend-mode:multiply"/><path d="M103.48 67c3-8.16 3-15.18.61-20.72C83 24.73 51.61 35.23 56.67 52.53c3.5 9.81 13.7 9.44 17.6 4.75C79.4 51.09 85.55 51.51 88 57c3.36 7.58-4.31 15.58-16.82 19.28-10 2.94-36.44.11-34.57-31.42 0-.24 0-.48.05-.72-5.17 25.9 18.42 47.32 45 48.32A48.42 48.42 0 0 0 103.48 67z" fill="#ab8eeb" style="mix-blend-mode:multiply"/></g></g></svg>