<svg data-v-67d810dd="" version="1.0" xmlns="http://www.w3.org/2000/svg" xmlns:xlink="http://www.w3.org/1999/xlink" width="100%" height="100%" viewBox="0 0 165.96530151 52.729019165" preserveAspectRatio="xMidYMid meet" color-interpolation-filters="sRGB" class="el-tooltip" style="margin: auto;"><g data-v-67d810dd="" fill="#ab8eeb" class="icon-text-wrapper icon-svg-group iconsvg"><g class="iconsvg-imagesvg" transform="translate(0,0)"><svg x="0" y="0" width="60" height="52.725209497204645" filtersec="colorsb60489505" class="image-svg-svg"><svg xmlns="http://www.w3.org/2000/svg" viewBox="0 0 114.56 100.67"><defs><linearGradient id="a091da32c-c2e4-4aac-884b-233004c89640" x1="28.78" y1="16.12" x2="94.66" y2="82" gradientUnits="userSpaceOnUse"><stop offset="0" stop-color="#ffb2c2"></stop><stop offset="1" stop-color="#f85e8a"></stop></linearGradient></defs><g style="isolation:isolate"><g><path d="M91 23.1c-7.63-2.2-52.55-9.82-54.42 21.72S61.2 79.18 71.15 76.24C83.66 72.54 91.33 64.54 88 57c-2.42-5.45-8.57-5.87-13.7.32-3.9 4.69-14.1 5.06-17.6-4.75S61.06 32 76.22 32.44c24 .69 34.71 14 27.26 34.58C92.89 96.29 51.9 112.75 26.6 81s-9.47-70.42 27-75.37C95 0 108.05 28 91 23.1z" fill="url(#a091da32c-c2e4-4aac-884b-233004c89640)"></path><path d="M101.83 26.24c-1.36 1.85 9.23 12.56 12.29 8.44s-10.92-10.3-12.29-8.44zM11.74 48.3c1.31-1.9-4.07-7.94-7-3.72s5.69 5.62 7 3.72z" fill="#f757af"></path><path d="M105.72 22.5c-1.92 1.74 4.88 4 5.74 1.46s-4.46-2.57-5.74-1.46zM40.28 96.71c-2.6 3.57 2.89 6 3.39 1.59.33-2.51-1.96-3.57-3.39-1.59z" fill="#ab8eeb" style="mix-blend-mode:multiply"></path><path d="M10.9 52.64c-2-1.52-6.63-2.8-9.53-1.08C-1.07 53-1 60.74 8.18 56.68c5.28-2.32 3.67-3.31 2.72-4.04zM91.48 11.94c2.19-1.72 3.52-3.59 2.71-5.54-3.34-8-30.46-9.38-48.9 1a51.75 51.75 0 0 1 8.34-1.81C71.7 3.13 84.37 7.1 91.48 11.94z" fill="#ffbd88" style="mix-blend-mode:multiply"></path><path d="M32.57 18.92c-15.49 24.24-6.07 53.73 24.37 57.4-10.54-2.43-21.59-10.75-20.36-31.5 1.42-24 27.89-25.33 43.76-23.61-7.82-.88 5-4.48 11.14-9.27C84.37 7.1 71.7 3.13 53.63 5.58a51.75 51.75 0 0 0-8.34 1.81 35.27 35.27 0 0 0-12.72 11.53z" fill="#ffbd88" style="mix-blend-mode:multiply"></path><path d="M26.6 81c-6.89-8.66-10.74-17.82-12-26.66-6.79 11.42-9 23.45-4.19 31.66S28 96.17 42 93.89A47.35 47.35 0 0 1 26.6 81z" fill="#f757af" style="mix-blend-mode:multiply"></path><path d="M87.94 64.38c-2.15 4.94-8.37 9.37-16.79 11.86-10 2.94-36.44.11-34.57-31.42.62-10.46 6-16.61 13.14-20.09C34.66 30.33 22 42 14.65 54.29c1.21 8.84 5.06 18 12 26.66A47.35 47.35 0 0 0 42 93.89c19.6-3.18 41.35-14.74 45.94-29.51z" fill="#f757af" style="mix-blend-mode:multiply"></path><path d="M104.09 46.3c2.44 5.54 2.34 12.56-.61 20.72a48.42 48.42 0 0 1-21.86 25.4 50.51 50.51 0 0 0 18.68-2.8c17.55-6.18 16.81-28.55 3.79-43.32z" fill="#ab8eeb" style="mix-blend-mode:multiply"></path><path d="M103.48 67c3-8.16 3-15.18.61-20.72C83 24.73 51.61 35.23 56.67 52.53c3.5 9.81 13.7 9.44 17.6 4.75C79.4 51.09 85.55 51.51 88 57c3.36 7.58-4.31 15.58-16.82 19.28-10 2.94-36.44.11-34.57-31.42 0-.24 0-.48.05-.72-5.17 25.9 18.42 47.32 45 48.32A48.42 48.42 0 0 0 103.48 67z" fill="#ab8eeb" style="mix-blend-mode:multiply"></path></g></g></svg></svg> <!----></g> <g transform="translate(67,3.1838836669921875)"><g class="tp-name iconsvg-namesvg" transform="translate(0,0)"><g><path d="M21.27-5.10L21.27-5.10L21.97-4.39Q21.97-4.39 22.15-3.87L22.15-3.87Q22.32-3.52 22.32-3.34L22.32-3.34Q22.15 0.70 14.06 0.88L14.06 0.88Q2.11 0 1.05-12.66L1.05-12.66Q1.76-27.77 14.24-28.30L14.24-28.30Q22.32-27.42 22.68-24.08L22.68-24.08Q22.68-23.03 21.45-22.32L21.45-22.32Q20.57-21.80 20.21-21.45L20.21-21.45Q19.69-20.57 19.34-18.98L19.34-18.98Q18.81-17.58 18.46-17.05L18.46-17.05Q17.93-16.52 17.05-16.52L17.05-16.52Q16.17-16.52 15.82-17.93L15.82-17.93Q15.64-19.16 14.94-19.51L14.94-19.51Q14.24-20.04 12.48-20.04L12.48-20.04Q6.33-19.51 5.63-12.30L5.63-12.30Q6.50-3.34 14.94-2.64L14.94-2.64Q18.28-2.64 18.81-4.75L18.81-4.75Q19.34-5.10 20.21-5.27L20.21-5.27Q20.39-5.27 20.74-5.27L20.74-5.27Q21.09-5.10 21.27-5.10ZM40.43-8.79L40.43-8.79Q39.73-0.35 31.99 0.18L31.99 0.18Q24.26-0.35 23.55-8.79L23.55-8.79Q24.43-17.58 31.99-18.28L31.99-18.28Q39.55-17.58 40.43-8.79ZM37.09-10.90L37.09-10.90Q36.74-15.64 31.99-16.00L31.99-16.00Q27.42-15.64 27.07-10.90L27.07-10.90Q27.42-6.15 31.99-5.80L31.99-5.80Q36.74-6.33 37.09-10.90ZM58.89-8.79L58.89-8.79Q58.18-0.35 50.45 0.18L50.45 0.18Q42.71-0.35 42.01-8.79L42.01-8.79Q42.89-17.58 50.45-18.28L50.45-18.28Q58.01-17.58 58.89-8.79ZM55.55-10.90L55.55-10.90Q55.20-15.64 50.45-16.00L50.45-16.00Q45.88-15.64 45.53-10.90L45.53-10.90Q45.88-6.15 50.45-5.80L50.45-5.80Q55.20-6.33 55.55-10.90ZM72.42-7.38L72.42-7.38L72.77-7.21L72.77-6.68Q72.77-6.33 72.60-5.45L72.60-5.45Q72.25-4.57 72.25-4.04L72.25-4.04Q72.25-3.34 72.95-2.46L72.95-2.46Q73.30-1.76 73.30-1.58L73.30-1.58Q73.30-1.58 73.30-1.41L73.30-1.41Q73.13-1.23 73.13-1.05L73.13-1.05Q71.54-0.18 68.38 0.18L68.38 0.18Q61.00-0.35 60.29-8.26L60.29-8.26Q60.82-18.11 68.73-18.46L68.73-18.46Q72.07-18.28 72.25-16.17L72.25-16.17Q72.07-15.29 71.19-15.12L71.19-15.12Q70.84-15.12 70.14-15.64L70.14-15.64Q69.08-16.35 68.03-16.35L68.03-16.35Q63.98-16.00 63.63-10.72L63.63-10.72Q63.98-6.33 68.73-5.80L68.73-5.80Q70.31-5.80 71.19-6.50L71.19-6.50Q71.72-7.03 72.42-7.38ZM75.06-4.57L75.06-4.57L75.06-23.38L75.06-20.39L75.06-22.68Q74.88-24.96 72.95-25.14L72.95-25.14Q73.83-28.65 78.57-29.53L78.57-29.53Q78.75-29.53 79.10-29.53L79.10-29.53Q79.28-29.36 79.45-29.36L79.45-29.36Q78.75-28.65 78.57-26.54L78.57-26.54Q78.57-26.19 78.40-25.66L78.40-25.66Q78.40-25.31 78.40-24.61L78.40-24.61Q78.05-22.15 78.22-20.57L78.22-20.57Q78.57-6.68 78.57-1.76L78.57-1.76Q78.75 0.35 76.64 0.35L76.64 0.35Q74.71 0.35 74.71-1.05L74.71-1.05Q74.71-1.58 74.88-2.64L74.88-2.64Q75.06-3.87 75.06-4.57ZM100.02-11.95L100.02-11.95L99.84-11.60L87.36-4.75Q88.77-2.46 92.29-2.46L92.29-2.46Q94.22-2.46 96.50-4.39L96.50-4.39Q97.38-5.10 97.73-5.10L97.73-5.10Q98.26-5.10 98.44-4.75L98.44-4.75Q98.79-4.22 98.79-3.69L98.79-3.69Q98.44-0.18 91.93 0.18L91.93 0.18Q84.20-0.35 83.50-8.61L83.50-8.61Q84.20-17.93 91.58-18.46L91.58-18.46Q95.63-18.46 98.44-13.89L98.44-13.89Q99.49-12.13 100.02-11.95ZM86.66-6.50L86.66-6.50L94.04-10.55Q92.64-12.48 90.70-12.48L90.70-12.48Q86.84-12.13 86.48-7.73L86.48-7.73Q86.48-7.03 86.66-6.50Z" transform="translate(-1.0546875, 29.53125)"></path></g> <!----> <!----> <!----> <!----> <!----> <!----> <g fill="#ab8eeb" transform="translate(101.9699935913086,0)"></g></g> <g class="tp-slogan iconsvg-slogansvg" fill="#333" transform="translate(24.784997940063477,37.40999984741211)"><!----> <!----> <!----> <g><path d="M8.06-6.05L8.06-6.05L6.94-6.05Q6.52-7.78 4.55-7.83L4.55-7.83Q1.83-7.69 1.73-4.36L1.73-4.36Q1.73-0.80 4.59-0.80L4.59-0.80Q6.56-0.84 7.03-3.19L7.03-3.19L8.16-3.19Q7.64 0.05 4.36 0.14L4.36 0.14Q0.61 0 0.52-4.31L0.52-4.31Q0.70-8.63 4.55-8.81L4.55-8.81Q7.59-8.72 8.06-6.05ZM16.31-4.27L16.31-4.27Q16.13-7.64 13.31-7.83L13.31-7.83Q10.45-7.69 10.31-4.27L10.31-4.27Q10.45-0.94 13.31-0.80L13.31-0.80Q16.13-0.98 16.31-4.27ZM17.48-4.27L17.48-4.27Q17.20 0 13.31 0.14L13.31 0.14Q9.38 0 9.09-4.27L9.09-4.27Q9.33-8.72 13.31-8.81L13.31-8.81Q17.20-8.67 17.48-4.27ZM25.64-4.27L25.64-4.27Q25.45-7.64 22.64-7.83L22.64-7.83Q19.78-7.69 19.64-4.27L19.64-4.27Q19.78-0.94 22.64-0.80L22.64-0.80Q25.45-0.98 25.64-4.27ZM26.81-4.27L26.81-4.27Q26.53 0 22.64 0.14L22.64 0.14Q18.70 0 18.42-4.27L18.42-4.27Q18.66-8.72 22.64-8.81L22.64-8.81Q26.53-8.67 26.81-4.27ZM35.34-6.05L35.34-6.05L34.22-6.05Q33.80-7.78 31.83-7.83L31.83-7.83Q29.11-7.69 29.02-4.36L29.02-4.36Q29.02-0.80 31.88-0.80L31.88-0.80Q33.84-0.84 34.31-3.19L34.31-3.19L35.44-3.19Q34.92 0.05 31.64 0.14L31.64 0.14Q27.89 0 27.80-4.31L27.80-4.31Q27.98-8.63 31.83-8.81L31.83-8.81Q34.88-8.72 35.34-6.05ZM36.80-8.58L37.97-8.58L37.97-1.03L42.33-1.03L42.33 0L36.80 0L36.80-8.58ZM44.77-1.03L49.92-1.03L49.92 0L43.59 0L43.59-8.58L49.83-8.58L49.83-7.59L44.77-7.59L44.77-4.92L49.45-4.92L49.45-3.89L44.77-3.89L44.77-1.03Z" transform="translate(-0.515625, 8.8125)"></path></g></g></g></g></svg>
